<?xml version="1.0" standalone="no"?>
<!DOCTYPE svg PUBLIC "-//W3C//DTD SVG 20010904//EN"
 "http://www.w3.org/TR/2001/REC-SVG-20010904/DTD/svg10.dtd">
<svg version="1.0" xmlns="http://www.w3.org/2000/svg"
 width="601.000000pt" height="601.000000pt" viewBox="0 0 601.000000 601.000000"
 preserveAspectRatio="xMidYMid meet">
<metadata>
Created by potrace 1.11, written by Peter Selinger 2001-2013
</metadata>
<g transform="translate(0.000000,601.000000) scale(0.100000,-0.100000)"
fill="#000000" stroke="none">
<path d="M2877 5614 c-1 -1 -27 -5 -57 -9 -30 -3 -62 -8 -70 -10 -8 -2 -35 -7
-60 -10 -25 -4 -72 -13 -105 -21 -33 -8 -67 -16 -75 -18 -323 -77 -822 -310
-1165 -544 -370 -252 -589 -527 -741 -928 -64 -169 -126 -422 -150 -613 -3
-25 -7 -57 -10 -71 -18 -110 -25 -486 -12 -630 36 -384 198 -793 446 -1118 84
-111 107 -137 217 -248 306 -309 673 -538 1107 -690 113 -39 337 -99 408 -108
25 -3 54 -8 65 -10 144 -28 588 -28 720 0 11 2 31 6 45 8 166 27 342 75 504
137 28 11 60 24 71 29 313 143 485 250 693 429 271 233 499 545 631 863 58
140 144 418 164 528 3 14 12 63 20 110 9 47 18 103 22 125 3 22 8 54 10 70 33
197 38 708 9 955 -3 25 -7 61 -9 80 -3 19 -6 44 -9 55 -2 11 -7 40 -11 65 -18
118 -86 310 -147 419 -340 606 -1097 1022 -2093 1150 -59 8 -410 12 -418 5z
m378 -129 c65 -9 223 -34 255 -40 101 -20 151 -31 266 -60 120 -31 322 -93
369 -114 11 -5 47 -19 80 -32 100 -37 277 -123 377 -182 429 -253 697 -583
788 -972 27 -114 28 -120 35 -180 4 -27 8 -61 11 -75 27 -166 26 -655 -2 -870
-23 -179 -69 -405 -118 -580 -28 -98 -85 -246 -137 -356 -39 -82 -138 -261
-160 -288 -4 -6 -43 -58 -86 -116 -149 -203 -395 -423 -639 -572 -253 -156
-589 -283 -854 -324 -19 -3 -60 -9 -90 -14 -125 -21 -349 -28 -495 -15 -483
41 -970 231 -1380 540 -319 241 -552 518 -715 850 -111 227 -172 434 -197 670
-13 125 -7 435 12 567 12 90 27 197 31 228 3 19 18 94 34 165 111 509 329 852
730 1149 142 105 482 297 707 399 256 116 514 192 753 222 100 12 340 12 425
0z"/>
<path d="M4031 3673 c-52 -27 -75 -65 -77 -126 -3 -89 43 -147 126 -155 47 -4
52 -3 89 35 30 30 41 50 46 86 17 115 -91 209 -184 160z"/>
<path d="M1917 3400 c-53 -10 -79 -26 -107 -67 -70 -102 16 -243 140 -231 93
9 149 84 134 179 -11 75 -92 132 -167 119z"/>
<path d="M3796 2624 c-10 -7 -22 -32 -27 -56 -14 -74 -17 -83 -37 -149 -59
-187 -111 -275 -201 -337 -110 -76 -232 -111 -411 -119 -183 -8 -326 27 -484
121 -90 53 -191 148 -225 211 -33 60 -68 77 -109 54 -15 -8 -28 -24 -30 -36
-9 -61 124 -223 258 -315 104 -71 233 -126 365 -154 52 -11 287 -13 345 -3
193 33 340 99 433 192 97 97 179 279 218 484 10 54 9 66 -5 88 -9 14 -22 25
-29 26 -6 0 -19 2 -28 4 -8 1 -23 -3 -33 -11z"/>
</g>
</svg>
